HIERARCHY
ROOT Hips
{
    OFFSET 0.000000 0.000000 0.000000
    CHANNELS 6 Xposition Yposition Zposition Zrotation Xrotation Yrotation
    JOINT Spine
    {
        OFFSET -0.000000 0.084000 0.000000
        CHANNELS 3 Zrotation Xrotation Yrotation
        JOINT Spine1
        {
            OFFSET -0.000000 0.216247 0.000000
            CHANNELS 3 Zrotation Xrotation Yrotation
            JOINT Neck
            {
                OFFSET -0.000000 0.215359 0.019578
                CHANNELS 3 Zrotation Xrotation Yrotation
                JOINT Head
                {
                    OFFSET -0.000000 0.143414 -0.020488
                    CHANNELS 3 Zrotation Xrotation Yrotation
                    End Site
                    {
                        OFFSET -0.000000 0.204877 0.000000
                    }
                }
            }
            JOINT LeftShoulder
            {
                OFFSET 0.040109 0.191272 -0.003631
                CHANNELS 3 Zrotation Xrotation Yrotation
                JOINT LeftArm
                {
                    OFFSET 0.138349 0.000000 0.000000
                    CHANNELS 3 Zrotation Xrotation Yrotation
                    JOINT LeftForeArm
                    {
                        OFFSET 0.335349 0.000000 0.000000
                        CHANNELS 3 Zrotation Xrotation Yrotation
                        JOINT LeftHand
                        {
                            OFFSET 0.276368 0.000000 0.000000
                            CHANNELS 3 Zrotation Xrotation Yrotation
                            End Site
                            {
                                OFFSET 0.153658 0.000000 0.000000
                            }
                        }
                    }
                }
            }
            JOINT RightShoulder
            {
                OFFSET -0.041533 0.191272 -0.003631
                CHANNELS 3 Zrotation Xrotation Yrotation
                JOINT RightArm
                {
                    OFFSET -0.138349 0.000000 0.000000
                    CHANNELS 3 Zrotation Xrotation Yrotation
                    JOINT RightForeArm
                    {
                        OFFSET -0.335349 0.000000 0.000000
                        CHANNELS 3 Zrotation Xrotation Yrotation
                        JOINT RightHand
                        {
                            OFFSET -0.276368 0.000000 0.000000
                            CHANNELS 3 Zrotation Xrotation Yrotation
                            End Site
                            {
                                OFFSET -0.153658 0.000000 0.000000
                            }
                        }
                    }
                }
            }
        }
    }
    JOINT LeftUpLeg
    {
        OFFSET 0.102438 0.000000 0.000000
        CHANNELS 3 Zrotation Xrotation Yrotation
        JOINT LeftLeg
        {
            OFFSET -0.000000 -0.442852 0.000000
            CHANNELS 3 Zrotation Xrotation Yrotation
            JOINT LeftFoot
            {
                OFFSET -0.000000 -0.461647 0.000000
                CHANNELS 3 Zrotation Xrotation Yrotation
                JOINT LeftToeBase
                {
                    OFFSET -0.000000 -0.066585 0.153658
                    CHANNELS 3 Zrotation Xrotation Yrotation
                    End Site
                    {
                        OFFSET -0.000000 0.000000 0.040975
                    }
                }
            }
        }
    }
    JOINT RightUpLeg
    {
        OFFSET -0.102438 0.000000 0.000000
        CHANNELS 3 Zrotation Xrotation Yrotation
        JOINT RightLeg
        {
            OFFSET -0.000000 -0.442852 0.000000
            CHANNELS 3 Zrotation Xrotation Yrotation
            JOINT RightFoot
            {
                OFFSET -0.000000 -0.461647 0.000000
                CHANNELS 3 Zrotation Xrotation Yrotation
                JOINT RightToeBase
                {
                    OFFSET -0.000000 -0.066585 0.153658
                    CHANNELS 3 Zrotation Xrotation Yrotation
                    End Site
                    {
                        OFFSET -0.000000 0.000000 0.040975
                    }
                }
            }
        }
    }
}
MOTION
Frames:    7
Frame Time:    0.010000
-0.527148    0.423177    0.176586    -3.126820    -20.164885    -9.260842    -2.046416    13.222096    1.916054    3.392723    -2.124951    0.622964    -6.510436    22.809010    2.095578    -0.248113    -5.037767    1.723546    13.292827    -0.519369    1.871253    -6.823622    -2.733278    -3.437336    -2.258653    -5.080439    5.074486    7.818698    -4.905537    1.104221    -14.523702    -1.482837    13.425366    11.074112    -13.337342    -0.003913    -3.553819    2.023306    1.263728    -43.280174    -2.171883    10.639915    121.091469    -70.675758    101.902550    -141.267838    63.227600    123.849426    2.215792    -18.081755    3.824923    0.000000    0.000000    0.000000    164.586273    -82.193794    168.174896    142.924637    70.864479    -151.671066    -11.316931    -14.761628    -1.125556    0.000000    0.000000    0.000000    
-0.527231    0.423193    0.176600    -3.134835    -20.168968    -9.221579    -2.072690    13.248015    1.902916    3.425589    -2.117469    0.617693    -6.522513    22.756983    2.085763    -0.212242    -4.989218    1.722673    13.275669    -0.493600    1.871445    -6.805797    -2.818545    -3.488075    -2.284792    -5.034388    5.081358    7.866664    -4.860049    1.070267    -14.520525    -1.480072    13.405178    11.106944    -13.300189    0.022596    -3.563325    1.990753    1.329727    -43.213207    -2.183246    10.610380    121.078270    -70.696053    101.955414    -141.370071    63.276073    123.922852    2.137067    -18.146383    3.725901    0.000000    0.000000    0.000000    164.383163    -82.202271    167.947525    143.116165    70.898041    -151.781555    -11.241333    -14.932852    -0.829401    0.000000    0.000000    0.000000    
-0.527317    0.423208    0.176619    -3.143037    -20.175976    -9.182670    -2.099843    13.271782    1.891404    3.459593    -2.101878    0.612795    -6.531707    22.707499    2.074857    -0.180350    -4.947324    1.719902    13.261638    -0.471862    1.868189    -6.792334    -2.907453    -3.536640    -2.310294    -4.989979    5.090515    7.905810    -4.816346    1.035486    -14.516729    -1.478060    13.384616    11.136542    -13.270447    0.047716    -3.569640    1.960889    1.391255    -43.143768    -2.195634    10.590274    121.058159    -70.717697    102.000870    -141.476608    63.323254    123.993805    2.069933    -18.213758    3.628522    0.000000    0.000000    0.000000    164.162918    -82.213036    167.700928    143.321548    70.933113    -151.901291    -11.154461    -15.111665    -0.521607    0.000000    0.000000    0.000000    
-0.527405    0.423222    0.176640    -3.151452    -20.186129    -9.144477    -2.127786    13.291825    1.882547    3.494901    -2.075108    0.608468    -6.540665    22.659275    2.062791    -0.148827    -4.911075    1.715734    13.247889    -0.446655    1.860646    -6.780211    -3.007671    -3.584322    -2.338804    -4.943742    5.102685    7.934379    -4.770596    1.002749    -14.512402    -1.478901    13.364317    11.161817    -13.251446    0.069028    -3.571535    1.934486    1.445104    -43.088760    -2.208822    10.576165    121.031654    -70.740562    102.036057    -141.583908    63.366280    124.056190    2.015027    -18.286276    3.531477    0.000000    0.000000    0.000000    163.914032    -82.226227    167.423569    143.543320    70.969460    -152.028580    -11.057698    -15.302061    -0.202060    0.000000    0.000000    0.000000    
-0.527493    0.423233    0.176661    -3.159702    -20.198732    -9.107100    -2.156344    13.305888    1.876020    3.531582    -2.035411    0.604576    -6.550191    22.609871    2.050964    -0.117310    -4.876112    1.711923    13.231613    -0.408556    1.848153    -6.766845    -3.121737    -3.630833    -2.371472    -4.897209    5.116865    7.951517    -4.724082    0.974859    -14.508163    -1.483777    13.346712    11.181623    -13.246533    0.084849    -3.565973    1.913711    1.488760    -43.059643    -2.221825    10.567685    121.001465    -70.763725    102.059387    -141.683929    63.402954    124.097992    1.971248    -18.362495    3.435485    0.000000    0.000000    0.000000    163.632309    -82.241562    167.113388    143.774200    71.005905    -152.154816    -10.957436    -15.502358    0.117900    0.000000    0.000000    0.000000    
-0.527580    0.423242    0.176681    -3.167835    -20.212719    -9.071007    -2.184870    13.312440    1.871276    3.569224    -1.982942    0.600757    -6.558535    22.553843    2.041040    -0.088932    -4.832399    1.709938    13.212582    -0.351790    1.830269    -6.752705    -3.246107    -3.675030    -2.404417    -4.856236    5.132562    7.956125    -4.682721    0.953839    -14.503867    -1.493339    13.333683    11.195877    -13.255156    0.095732    -3.551449    1.900865    1.519697    -43.054375    -2.233724    10.568692    120.970505    -70.785500    102.069504    -141.767960    63.430901    124.111938    1.934018    -18.438887    3.340178    0.000000    0.000000    0.000000    163.320862    -82.257675    166.775009    144.004669    71.041977    -152.271942    -10.861665    -15.703177    0.422250    0.000000    0.000000    0.000000    
-0.527666    0.423248    0.176699    -3.176214    -20.226887    -9.036477    -2.212439    13.312105    1.867119    3.607117    -1.921741    0.597070    -6.566749    22.494913    2.033245    -0.062281    -4.780803    1.710024    13.192795    -0.284336    1.809525    -6.739509    -3.367453    -3.718380    -2.434505    -4.820879    5.151636    7.951148    -4.646671    0.939256    -14.498894    -1.507717    13.326218    11.205235    -13.276348    0.103613    -3.527851    1.898903    1.535548    -43.069111    -2.241245    10.579198    120.941467    -70.804459    102.064735    -141.826599    63.447304    124.099220    1.887803    -18.513447    3.238894    0.000000    0.000000    0.000000    162.990616    -82.273331    166.421707    144.222153    71.076233    -152.371979    -10.776648    -15.891544    0.697860    0.000000    0.000000    0.000000    
